<svg xmlns="http://www.w3.org/2000/svg" viewBox="0 0 200 200"><defs><style>.cls-1{isolation:isolate;}.cls-2{fill:#414a51;}.cls-3{opacity:0.12;mix-blend-mode:multiply;}.cls-4{fill:#f06000;}.cls-5{fill:#f70;}.cls-6{fill:#ff9100;}</style></defs><title>Cha_Motion</title><g class="cls-1"><g id="Layer_1" data-name="Layer 1"><rect class="cls-2" width="200" height="200"/><path class="cls-3" d="M66.68,103.6l42.61-42.23A2.57,2.57,0,0,1,113.85,63V90.36a2.57,2.57,0,0,0,2.57,2.57h17.14V103.4a2.61,2.61,0,0,1-.59,1.66L90.86,156.39a2.57,2.57,0,0,1-4.56-1.63V118.15a2.57,2.57,0,0,0-2.57-2.57H69.29A2.61,2.61,0,0,1,66.68,113Z"/><path class="cls-4" d="M66.32,99.54l43-45.37a2.57,2.57,0,0,1,4.56,1.63V85.22a2.57,2.57,0,0,0,2.57,2.57h17.33v8.41a2.61,2.61,0,0,1-.59,1.66L90.86,149.19a2.57,2.57,0,0,1-4.56-1.63V112a2.57,2.57,0,0,0-2.57-2.57l-14.81,0a2.61,2.61,0,0,1-2.61-2.61Z"/><path class="cls-5" d="M133.19,89.37,90.86,141a2.57,2.57,0,0,1-4.57-1.63V102.79a.58.58,0,0,0-.58-.59H69.16A2.86,2.86,0,0,1,67,97.54l42.33-51.59a2.57,2.57,0,0,1,4.56,1.64V84.13a.58.58,0,0,0,.59.57H131A2.86,2.86,0,0,1,133.19,89.37Z"/><path class="cls-6" d="M133.19,89.37,90.86,141a2.57,2.57,0,0,1-4.57-1.63V102.79a.58.58,0,0,0-.58-.59H84.4l29.45-29.52V84.13a.58.58,0,0,0,.59.57H131A2.86,2.86,0,0,1,133.19,89.37Z"/></g></g></svg>