<svg xmlns="http://www.w3.org/2000/svg" viewBox="0 0 45.09 47.65"><defs><style>.cls-1{isolation:isolate;}.cls-2{opacity:0.04;}.cls-2,.cls-6,.cls-8{mix-blend-mode:multiply;}.cls-3{fill:#f2ba00;}.cls-4{fill:#ffd500;}.cls-5{fill:#ffea00;}.cls-6{opacity:0.07;}.cls-11,.cls-7{fill:#fff;}.cls-8{opacity:0.12;}.cls-9{fill:#f06000;}.cls-10{fill:#f70;}.cls-11{opacity:0.15;}</style></defs><title>Step-Star-1</title><g class="cls-1"><g id="Layer_2" data-name="Layer 2"><g id="Layer_1-2" data-name="Layer 1"><path class="cls-2" d="M45.09,25.07a22.47,22.47,0,1,1-2.3-9.9A22.54,22.54,0,0,1,45.09,25.07Z"/><path class="cls-3" d="M45.09,23.9a22.47,22.47,0,1,1-2.3-9.9A22.54,22.54,0,0,1,45.09,23.9Z"/><path class="cls-4" d="M45.09,22.51A22.56,22.56,0,0,1,13.25,43.09l-.57-.27a22.52,22.52,0,0,1-3.37-2l-.22-.16a23,23,0,0,1-1.82-1.51l-.05,0A22.66,22.66,0,0,1,2.3,32.47L2,31.9A22.55,22.55,0,0,1,31.84,2l.57.27A22.64,22.64,0,0,1,39,7.17l0,.05A22.93,22.93,0,0,1,40.6,9l.16.21h0a22.34,22.34,0,0,1,2,3.36l.27.57A22.47,22.47,0,0,1,45.09,22.51Z"/><path class="cls-5" d="M39.08,7.22,7.27,39.13l-.05,0A22.66,22.66,0,0,1,2.3,32.47L2,31.9,31.84,2l.57.27A22.64,22.64,0,0,1,39,7.17Z"/><path class="cls-5" d="M43.06,13.19,13.25,43.09l-.57-.27a22.52,22.52,0,0,1-3.37-2L40.75,9.25a22.34,22.34,0,0,1,2,3.36Z"/><path class="cls-3" d="M41.7,22.51A19.16,19.16,0,1,1,22.52,3.39,19.12,19.12,0,0,1,41.7,22.51Z"/><path class="cls-5" d="M41.7,23.56a19.16,19.16,0,1,1-38.31.06c0-.17,0-.35,0-.52A19.15,19.15,0,0,0,41.69,23C41.7,23.21,41.7,23.39,41.7,23.56Z"/><path class="cls-6" d="M3.39,22.57c0,.23,0,.47,0,.7a19.15,19.15,0,0,1,38.28-.06c0-.23,0-.46,0-.7a19.16,19.16,0,1,0-38.31.06Z"/><path class="cls-6" d="M38.76,23.79A16.22,16.22,0,0,1,7.08,28.71L7,28.41a16.21,16.21,0,0,1,28-15,16.17,16.17,0,0,1,3.43,7A16.24,16.24,0,0,1,38.76,23.79Z"/><path class="cls-3" d="M38.76,22.94A16.22,16.22,0,0,1,7.08,27.86L7,27.56a16.21,16.21,0,0,1,28-15,16.17,16.17,0,0,1,3.43,7A16.24,16.24,0,0,1,38.76,22.94Z"/><path class="cls-4" d="M38.77,22.1A16.24,16.24,0,0,1,19.17,38l-.67-.16a16,16,0,0,1-4-1.66l-.33-.2a16.43,16.43,0,0,1-1.94-1.39l-.2-.17A16.26,16.26,0,0,1,7.08,27l0-.14L7,26.71A16.23,16.23,0,0,1,22.52,5.9a16.1,16.1,0,0,1,4.57.65l.17,0h0a16.24,16.24,0,0,1,7.55,4.92l.17.2a16,16,0,0,1,1.4,1.94l.2.34a16.07,16.07,0,0,1,1.67,4q.09.33.16.67A16.37,16.37,0,0,1,38.77,22.1Z"/><path class="cls-5" d="M34.81,11.51,12,34.41A16.26,16.26,0,0,1,7.08,27l0-.14L27.25,6.6h0A16.24,16.24,0,0,1,34.81,11.51Z"/><path class="cls-5" d="M38.24,18,18.5,37.83a16,16,0,0,1-4-1.66l-.33-.2L36.37,13.65l.2.34A16.07,16.07,0,0,1,38.24,18Z"/><path class="cls-7" d="M36.54,11.95a1.83,1.83,0,0,0-1.7,1.7.2.2,0,0,1-.39,0,1.83,1.83,0,0,0-1.7-1.7.2.2,0,0,1,0-.39,1.83,1.83,0,0,0,1.7-1.7.2.2,0,0,1,.39,0,1.83,1.83,0,0,0,1.7,1.7A.2.2,0,0,1,36.54,11.95Z"/><circle class="cls-7" cx="16.99" cy="25.57" r="0.58"/><g class="cls-8"><path d="M28.44,33a1.55,1.55,0,0,1-.49.08,1.73,1.73,0,0,1-.73-.18L22.5,30.48,17.8,33l-.25.11a1.57,1.57,0,0,1-1.4-.2,1.61,1.61,0,0,1-.63-1.54l.87-5.26-3.86-3.68a1.56,1.56,0,0,1,.58-2.6l.27-.06,5.28-.8,2.3-4.8a1.57,1.57,0,0,1,.9-.8,1.59,1.59,0,0,1,1.92.78l2.38,4.76,5.28.73a1.56,1.56,0,0,1,1.28,1,1.59,1.59,0,0,1-.4,1.6L28.54,26l.94,5.23a1.58,1.58,0,0,1-1,1.76"/></g><path class="cls-9" d="M32.79,17.67h-.92v.53a1.48,1.48,0,0,0-.43-.12l-5.28-.73L23.78,12.6a1.59,1.59,0,0,0-1.92-.78,1.57,1.57,0,0,0-.9.8l-2.3,4.8-5.28.8-.27.06-.13.06v-.67h-.92v2a1.55,1.55,0,0,0,.47,1.2l3.86,3.68L15.82,28H15.5v2.08h0a1.6,1.6,0,0,0,.64,1.28,1.57,1.57,0,0,0,1.4.2l.25-.11,4.7-2.51,4.72,2.45a1.73,1.73,0,0,0,.73.18,1.52,1.52,0,0,0,.93-.31,1.53,1.53,0,0,0,.62-1.16h0V28h-.33l-.64-3.52,3.78-3.75a1.57,1.57,0,0,0,.45-1h0Z"/><path class="cls-10" d="M28.44,29.48a1.55,1.55,0,0,1-.49.08,1.73,1.73,0,0,1-.73-.18L22.5,26.94l-4.7,2.51-.25.11a1.57,1.57,0,0,1-1.4-.2,1.61,1.61,0,0,1-.63-1.54l.87-5.26-3.86-3.68a1.56,1.56,0,0,1,.58-2.6l.27-.06,5.28-.8,2.3-4.8a1.57,1.57,0,0,1,.9-.8,1.59,1.59,0,0,1,1.92.78l2.38,4.76,5.28.73a1.56,1.56,0,0,1,1.28,1,1.59,1.59,0,0,1-.4,1.6l-3.78,3.75.94,5.23a1.58,1.58,0,0,1-1,1.76"/><path class="cls-11" d="M15.43,27.83a1.61,1.61,0,0,0,.63,1.54,1.57,1.57,0,0,0,1.4.2l.25-.11,4.7-2.51,4.72,2.45a1.73,1.73,0,0,0,.73.18,1.57,1.57,0,0,0,1.53-1.84l-.94-5.23,3.78-3.75a1.59,1.59,0,0,0,.4-1.6,1.56,1.56,0,0,0-1.28-1l-5-.68L15.72,26.09Z"/></g></g></g></svg>