<svg xmlns="http://www.w3.org/2000/svg" viewBox="0 0 45.1 47.65"><defs><style>.cls-1{fill:#f9f9f9;}.cls-2{fill:#d3d3d3;}.cls-3{fill:#dfdfdf;}.cls-4{fill:#e7e7e7;}.cls-5{fill:#d7d7d7;}.cls-6{fill:#cbcbcb;}.cls-7{fill:#dedede;}.cls-8{fill:#fff;}.cls-9{fill:#d0d0d0;}.cls-10{fill:#b3b3b3;}.cls-11{fill:#bebebe;}.cls-12{fill:#ebebeb;}.cls-13{fill:#bfbfbf;}.cls-14{fill:#c8c8c8;}</style></defs><title>Step-Star-0</title><g id="Layer_2" data-name="Layer 2"><g id="Layer_1-2" data-name="Layer 1"><path class="cls-1" d="M45.09,24.43a22.54,22.54,0,0,1-22.5,22h0A22.47,22.47,0,0,1,9.1,42,22.62,22.62,0,0,1,2.3,33.87,22.45,22.45,0,0,1,0,24.59q0,.27,0,.55A22.5,22.5,0,0,0,7.23,41.64,23.19,23.19,0,0,0,9.1,43.2a22.49,22.49,0,0,0,13.45,4.45h0A22.55,22.55,0,0,0,45.1,25.07q0-.32,0-.64"/><path class="cls-2" d="M45.08,23.23a22.55,22.55,0,0,1-22.5,21.86h0a22.46,22.46,0,0,1-9.29-2l-.57-.27a22.51,22.51,0,0,1-3.37-2l-.22-.16a23,23,0,0,1-1.82-1.51l-.05,0A22.65,22.65,0,0,1,2.3,32.47L2,31.9a22.47,22.47,0,0,1-2-8.62q0,.34,0,.69t0,.62A22.49,22.49,0,0,0,7.23,40.48a22.59,22.59,0,0,0,5.45,3.74,22.45,22.45,0,0,0,9.87,2.27h0a22.54,22.54,0,0,0,22.5-22q0-.26,0-.53t0-.68"/><path class="cls-3" d="M22.53,41.7h0m-.15,0h0m.34,0h0m-.45,0h0m.57,0h0m-.68,0h0m.8,0h0m.11,0h0m.25,0h0m-1.57,0h0m1.68,0h0m.12,0h0m.36,0h0m.12,0h0m.47,0h0m-8.66-1.11h0a19,19,0,0,0,5.91,1.19,19,19,0,0,1-5.91-1.19M39.08,7.22l-2.4,2.41a19.29,19.29,0,0,1,1.64,2.06l2.43-2.44h0L40.6,9a22.7,22.7,0,0,0-1.51-1.81h0M22.56,0h0A22.54,22.54,0,0,0,0,22.58q0,.35,0,.7A22.47,22.47,0,0,0,2,31.9l.27.57a22.65,22.65,0,0,0,4.92,6.61l.05,0a23,23,0,0,0,1.82,1.51l.22.16a22.51,22.51,0,0,0,3.37,2l.57.27a22.46,22.46,0,0,0,9.29,2h0a22.55,22.55,0,0,0,22.5-21.86c0-.24,0-.48,0-.72a22.46,22.46,0,0,0-2-9.32h0l-2.59,2.6a19.06,19.06,0,0,1,1.23,6.73q0,.28,0,.56c0,.16,0,.32,0,.48A19.18,19.18,0,0,1,22.58,42.74h0a19.05,19.05,0,0,1-7.45-1.51l-1.85,1.85-.57-.27a22.51,22.51,0,0,1-3.37-2L11.14,39a19.26,19.26,0,0,1-2-1.71L7.27,39.13l-.05,0A22.65,22.65,0,0,1,2.3,32.47L2,31.9l2.32-2.33a19.08,19.08,0,0,1-1-6c0-.17,0-.34,0-.5s0-.36,0-.54A19.18,19.18,0,0,1,22.51,3.39h0a19.06,19.06,0,0,1,6.7,1.21L31.84,2a22.4,22.4,0,0,0-9.28-2"/><path class="cls-4" d="M4.35,29.57,2,31.9l.27.57a22.65,22.65,0,0,0,4.92,6.61l.05,0,1.87-1.87a19.19,19.19,0,0,1-4.79-7.68M31.84,2h0L29.25,4.6a19.22,19.22,0,0,1,7.44,5l2.4-2.41,0-.05a22.64,22.64,0,0,0-6.63-4.9L31.84,2"/><path class="cls-4" d="M14.34,39.85q.74.35,1.5.64h0q-.77-.29-1.5-.64m-.09,0,.07,0-.07,0M14,39.69l.22.11L14,39.69m-.08,0,.05,0-.05,0m-.09,0,0,0,0,0m-.09,0,0,0,0,0m-.09,0h0m-.11-.06h0m-.1-.05h0m-.09-.05h0m-.09-.05h0M11.14,39,9.31,40.8a22.51,22.51,0,0,0,3.37,2l.57.27,1.85-1.85a19.16,19.16,0,0,1-4-2.27M40.75,9.25h0l-2.43,2.44a19.13,19.13,0,0,1,2.15,4.09l2.59-2.6-.27-.57a22.31,22.31,0,0,0-2-3.36"/><path class="cls-2" d="M6.33,22.55q0-.2,0-.41A16.24,16.24,0,0,1,22.52,5.9h0a16.13,16.13,0,0,1,4.53.65l.17,0h0a16.22,16.22,0,0,1,6.87,4.17,2.83,2.83,0,0,0,.33-.91.2.2,0,0,1,.39,0,1.83,1.83,0,0,0,1.7,1.7.2.2,0,0,1,0,.39,2.51,2.51,0,0,0-1,.42q.47.62.88,1.28h0l.2.34a16.07,16.07,0,0,1,1.67,4h0c.06.22.11.44.16.67a16.44,16.44,0,0,1,.37,3.4q0,.23,0,.47t0,.38q0,.23,0,.45t0,.4A16.21,16.21,0,0,1,22.57,40h0a16.2,16.2,0,0,1-3.37-.35,16,16,0,0,1-4.71-1.81,16.31,16.31,0,0,1-7.37-9.16L7,28.41a16.19,16.19,0,0,1-.66-4.57c0-.15,0-.3,0-.45s0-.27,0-.4,0-.29,0-.44M22.55,4.78h0A19.18,19.18,0,0,0,3.4,23.27a19.18,19.18,0,0,0,9.86,16h0l.09,0h0l.07,0h0l.07,0h0l.09,0h0l.07,0,0,0,0,0,0,0,0,0,.05,0h0l.22.11h0l.07,0h0q.74.35,1.5.64a19,19,0,0,0,5.91,1.19h1.8l.35,0H24l.47,0h0A19.18,19.18,0,0,0,41.69,23.2,19.18,19.18,0,0,0,22.55,4.78m0-1.39h0A19.18,19.18,0,0,1,41.7,22.51c0,.18,0,.37,0,.55v0q0-.28,0-.56a19.05,19.05,0,0,0-3.38-10.82A19.28,19.28,0,0,0,29.25,4.6a19.06,19.06,0,0,0-6.7-1.21"/><path class="cls-4" d="M41.69,23.06q0,.08,0,.15h0A19.18,19.18,0,0,1,24.5,41.6h0l-.47,0H23.9l-.35,0h-1.8a19,19,0,0,1-5.91-1.19q-.77-.29-1.5-.64h0l-.07,0h0L14,39.69h0l-.05,0,0,0,0,0,0,0,0,0-.07,0h0l-.09,0h0l-.07,0h0l-.07,0h0l-.09,0h0a19.18,19.18,0,0,1-9.86-16h0v-.15c0,.17,0,.33,0,.5A19.16,19.16,0,0,0,22.55,42.74h0A19.18,19.18,0,0,0,41.7,23.56c0-.16,0-.32,0-.48v0"/><path class="cls-5" d="M22.54,3.39h0A19.18,19.18,0,0,0,3.39,22.57c0,.18,0,.36,0,.54h0q0-.27,0-.54A19.18,19.18,0,0,1,22.52,3.39h0"/><path class="cls-6" d="M22.54,3.39h0A19.18,19.18,0,0,0,3.39,22.57q0,.27,0,.54v.15A19.18,19.18,0,0,1,22.52,4.78h0A19.18,19.18,0,0,1,41.69,23.2v-.14c0-.18,0-.36,0-.55A19.18,19.18,0,0,0,22.54,3.39"/><path class="cls-7" d="M3.4,23.1v0h0v.15h0V23.1M41.69,23v.16h0s0-.1,0-.15v0"/><path class="cls-6" d="M6.33,23.39c0,.15,0,.3,0,.45A16.19,16.19,0,0,0,7,28.41l.09.3a16.31,16.31,0,0,0,7.37,9.16,16,16,0,0,0,4.71,1.81,16.2,16.2,0,0,0,3.37.35h0A16.21,16.21,0,0,0,38.76,23.79q0-.2,0-.4A16.21,16.21,0,0,1,22.57,39.19h0A16.09,16.09,0,0,1,14.45,37a16.31,16.31,0,0,1-7.37-9.16L7,27.56a16.16,16.16,0,0,1-.66-4.17"/><path class="cls-2" d="M6.33,22.55q0,.22,0,.44t0,.4A16.16,16.16,0,0,0,7,27.56l.09.3A16.31,16.31,0,0,0,14.45,37a16.09,16.09,0,0,0,8.08,2.17h0A16.21,16.21,0,0,0,38.76,23.39q0-.23,0-.45t0-.38A16.21,16.21,0,0,1,22.57,38.34h0A16.16,16.16,0,0,1,19.17,38l-.67-.16a16,16,0,0,1-4-1.66l-.34-.2a16.49,16.49,0,0,1-1.94-1.39l-.2-.17A16.27,16.27,0,0,1,7.08,27l0-.14L7,26.71a16.26,16.26,0,0,1-.66-4.16"/><path class="cls-3" d="M35.5,12.37a2,2,0,0,0-.65,1.28.2.2,0,0,1-.39,0,2.17,2.17,0,0,0-.57-1.2l-3.49,3.5,1.05.14a1.56,1.56,0,0,1,1.28,1l0,.14,3.62-3.63Q36,13,35.5,12.37M22.56,5.9h0A16.24,16.24,0,0,0,6.32,22.14q0,.2,0,.41A16.26,16.26,0,0,0,7,26.71l.05.17,0,.14a16.27,16.27,0,0,0,4.9,7.4l.2.17A16.49,16.49,0,0,0,14.12,36l.34.2a16,16,0,0,0,4,1.66l.67.16a16.16,16.16,0,0,0,3.36.35h0A16.21,16.21,0,0,0,38.76,22.56q0-.23,0-.47a16.44,16.44,0,0,0-.37-3.4c0-.22-.1-.45-.16-.67h0L29.34,27l.14.77a1.54,1.54,0,0,1,0,.44v1.93h0a1.6,1.6,0,0,1-.13.55l.11.63a1.58,1.58,0,0,1-1,1.76,1.56,1.56,0,0,1-.49.08,1.74,1.74,0,0,1-.73-.18l-2.53-1.31L18.5,37.83a16,16,0,0,1-4-1.66l-.34-.2,2.78-2.79a1.57,1.57,0,0,1-.75-.28,1.61,1.61,0,0,1-.63-1.54l.1-.61L12,34.41A16.27,16.27,0,0,1,7.08,27l0-.14,5.09-5.1a1.59,1.59,0,0,1,0-.94,1.61,1.61,0,0,1,.13-.3,1.58,1.58,0,0,1-.2-.85V17.91a1.59,1.59,0,0,1,.06-.61,1.57,1.57,0,0,1,1-1l.27-.06,5.05-.77.4-.4L21,10.61a1.58,1.58,0,0,1,.9-.8,1.59,1.59,0,0,1,1.71.47L27.25,6.6l-.17,0a16.13,16.13,0,0,0-4.53-.65"/><path class="cls-4" d="M12.12,21.77,7,26.88l0,.14a16.27,16.27,0,0,0,4.9,7.4l3.64-3.65v-.08a1.66,1.66,0,0,1-.12-.6h0v-1.5a1.61,1.61,0,0,1-.07-.76l.29-1.73.1-.1.06-.37-3.35-3.2a1.54,1.54,0,0,1-.4-.65M18.83,15l-.4.4.22,0,.18-.37M27.25,6.6h0l-3.68,3.69a1.54,1.54,0,0,1,.21.31l2.38,4.77,4.23.58,3.49-3.5A2.3,2.3,0,0,0,32.75,12a.2.2,0,0,1,0-.39,1.89,1.89,0,0,0,1.37-.79A16.22,16.22,0,0,0,27.25,6.6"/><path class="cls-4" d="M22.5,30.48,17.8,33l-.25.11a1.55,1.55,0,0,1-.5.08H16.9L14.12,36l.34.2a16,16,0,0,0,4,1.66l6.19-6.21L22.5,30.48M36.37,13.65h0l-3.62,3.63a1.62,1.62,0,0,1,0,.4h0v2.08h0a1.65,1.65,0,0,1-.19.63,1.56,1.56,0,0,1,.14.3,1.59,1.59,0,0,1-.4,1.6l-3.24,3.21L29.34,27,38.24,18a16.07,16.07,0,0,0-1.67-4l-.2-.34"/><path class="cls-8" d="M34.64,9.7a.2.2,0,0,0-.2.16,2.83,2.83,0,0,1-.33.91,1.89,1.89,0,0,1-1.37.79.2.2,0,0,0,0,.39,2.3,2.3,0,0,1,1.13.49,2.17,2.17,0,0,1,.57,1.2.2.2,0,0,0,.39,0,2,2,0,0,1,.65-1.28,2.51,2.51,0,0,1,1-.42.2.2,0,0,0,0-.39,1.83,1.83,0,0,1-1.7-1.7.2.2,0,0,0-.2-.16"/><path class="cls-5" d="M32.58,20.38a1.47,1.47,0,0,1-.26.35l-3.48,3.45.24,1.31,3.24-3.21a1.59,1.59,0,0,0,.4-1.6,1.56,1.56,0,0,0-.14-.3"/><path class="cls-9" d="M12.26,20.53a1.61,1.61,0,0,0-.13.3,1.59,1.59,0,0,0,0,.94l.65-.65-.25-.24a1.52,1.52,0,0,1-.27-.35"/><path class="cls-5" d="M12.78,21.12l-.65.65a1.54,1.54,0,0,0,.4.65l3.35,3.2.22-1.33-3.32-3.17"/><path class="cls-9" d="M25.7,30.6l-1,1,2.53,1.31a1.74,1.74,0,0,0,.73.18,1.52,1.52,0,0,0,.93-.31,1.55,1.55,0,0,0,.6-1.53l-.11-.63a1.48,1.48,0,0,1-.49.62,1.52,1.52,0,0,1-.93.31,1.73,1.73,0,0,1-.73-.18L25.7,30.6m-6.14-.09-1.76.94-.25.11a1.55,1.55,0,0,1-.5.08,1.49,1.49,0,0,1-1.4-.92l0,0-.1.61a1.61,1.61,0,0,0,.63,1.54,1.57,1.57,0,0,0,.75.28l2.66-2.67"/><path class="cls-5" d="M15.63,30.69v.08l0,0,0,0"/><path class="cls-5" d="M22.5,28.94l-2.93,1.57L16.9,33.18h.15a1.55,1.55,0,0,0,.5-.08L17.8,33l4.7-2.52,2.19,1.14,1-1-3.2-1.66"/><path class="cls-10" d="M22.46,27,17.8,29.45l-.25.11a1.55,1.55,0,0,1-.5.08H17a1.57,1.57,0,0,1-.9-.28,1.61,1.61,0,0,1-.57-.78v1.5h0a1.66,1.66,0,0,0,.12.6l0,0a1.54,1.54,0,0,0,1.9.84l.25-.11,1.76-.94,2.93-1.57,3.2,1.66,1.51.79a1.73,1.73,0,0,0,.73.18,1.52,1.52,0,0,0,.93-.31,1.48,1.48,0,0,0,.49-.62,1.6,1.6,0,0,0,.13-.55h0V28.16a1.6,1.6,0,0,1-1.06,1.32,1.57,1.57,0,0,1-.49.08h-.08a1.72,1.72,0,0,1-.73-.18L22.46,27m-10.4-9.06v1.77a1.58,1.58,0,0,0,.2.85,1.52,1.52,0,0,0,.27.35l.25.24L16.1,24.3l.29-1.73-3.86-3.68a1.55,1.55,0,0,1-.47-1m20.73-.23h0a1.58,1.58,0,0,1-.47,1.06l-3.78,3.75.31,1.7,3.48-3.45a1.47,1.47,0,0,0,.26-.35,1.65,1.65,0,0,0,.19-.63h0V17.67"/><path class="cls-11" d="M22.41,26.94l-4.7,2.52-.25.11a1.55,1.55,0,0,1-.46.08h0a1.55,1.55,0,0,0,.5-.08l.25-.11L22.46,27l0,0m0-17.21a1.61,1.61,0,0,0-.5.08,1.58,1.58,0,0,0-.9.8L18.83,15l-.18.37-.22,0-5.05.77-.27.06a1.57,1.57,0,0,0-1,1,1.59,1.59,0,0,0-.06.61,1.55,1.55,0,0,0,.47,1l3.86,3.68L16.1,24.3l-.22,1.33-.06.37L26.41,15.41l5,.68a1.56,1.56,0,0,1,1.28,1,1.59,1.59,0,0,1-.4,1.6l-3.78,3.75.94,5.23a1.55,1.55,0,0,1-.61,1.53,1.53,1.53,0,0,1-.44.23,1.56,1.56,0,0,1-.44.08h0a1.57,1.57,0,0,0,.49-.08,1.56,1.56,0,0,0,1-1.76L29.34,27l-.26-1.46-.24-1.31-.31-1.7,3.78-3.75a1.58,1.58,0,0,0,.47-1.06,1.62,1.62,0,0,0,0-.4l0-.14a1.56,1.56,0,0,0-1.28-1l-1.05-.14-4.23-.58L23.78,10.6a1.54,1.54,0,0,0-.21-.31,1.61,1.61,0,0,0-1.21-.56"/><path class="cls-12" d="M15.82,26l-.1.1-.29,1.73a1.61,1.61,0,0,0,.07.76v-.48s0,0,0-.07v0h0a1.63,1.63,0,0,1,0-.18l.3-1.83"/><path class="cls-13" d="M15.5,28.11v.48a1.61,1.61,0,0,0,.57.78,1.57,1.57,0,0,0,.9.28h0a1.58,1.58,0,0,1-.86-.28,1.61,1.61,0,0,1-.65-1.26m0-.1h0v0m7-1.07,0,0,4.68,2.42a1.72,1.72,0,0,0,.73.18h0a1.73,1.73,0,0,1-.7-.17L22.5,26.94"/><path class="cls-14" d="M26.41,15.41,15.82,26l-.3,1.83a1.63,1.63,0,0,0,0,.18v0s0,0,0,.07a1.61,1.61,0,0,0,.65,1.26,1.58,1.58,0,0,0,.86.28,1.55,1.55,0,0,0,.46-.08l.25-.11,4.7-2.52,0,0,0,0,4.72,2.45a1.73,1.73,0,0,0,.7.17,1.56,1.56,0,0,0,.44-.08,1.53,1.53,0,0,0,.44-.23,1.55,1.55,0,0,0,.61-1.53l-.94-5.23,3.78-3.75a1.59,1.59,0,0,0,.4-1.6,1.56,1.56,0,0,0-1.28-1l-5-.68"/></g></g></svg>