<svg xmlns="http://www.w3.org/2000/svg" viewBox="0 0 11.99 16.35"><defs><style>.cls-1{fill:#83898e;}</style></defs><title>Asset 28</title><g id="Layer_2" data-name="Layer 2"><g id="Layer_4" data-name="Layer 4"><path class="cls-1" d="M12,7.92v7.15a1.25,1.25,0,0,1-.37.9,1.22,1.22,0,0,1-.91.38H1.28A1.22,1.22,0,0,1,.37,16a1.25,1.25,0,0,1-.37-.9V7.92a1.21,1.21,0,0,1,.62-1,1.32,1.32,0,0,1,.57-.21q.6-.07.6-.52V4.4a4.37,4.37,0,0,1,.59-2.24A4.31,4.31,0,0,1,4,.55,3.8,3.8,0,0,1,6,0,4.23,4.23,0,0,1,9.18,1.42a4.6,4.6,0,0,1,1.2,3.16V6.15q0,.45.62.54a1.12,1.12,0,0,1,.66.4A1.2,1.2,0,0,1,12,7.92ZM3.7,4.35V6.09a.53.53,0,0,0,.16.39.59.59,0,0,0,.41.17H7.69a.45.45,0,0,0,.43-.2.71.71,0,0,0,.12-.36V4.47a2.42,2.42,0,0,0-.62-1.64,2.13,2.13,0,0,0-1.57-.75,2.17,2.17,0,0,0-1.66.63A2.18,2.18,0,0,0,3.7,4.35Z"/></g></g></svg>