<svg xmlns="http://www.w3.org/2000/svg" xmlns:xlink="http://www.w3.org/1999/xlink" viewBox="0 0 130 130"><defs><style>.cls-1{fill:none;}.cls-2{isolation:isolate;}.cls-3{opacity:0.04;}.cls-12,.cls-3,.cls-9{mix-blend-mode:multiply;}.cls-4{fill:#f2ba00;}.cls-5{fill:#ffd500;}.cls-6{clip-path:url(#clip-path);}.cls-7{fill:#ffea00;}.cls-8{fill:url(#linear-gradient);}.cls-9{opacity:0.07;}.cls-10{clip-path:url(#clip-path-2);}.cls-11{fill:#fff;}.cls-12{opacity:0.12;}.cls-13{fill:#2e3192;}.cls-14{fill:#0071bc;}.cls-15{fill:#29abe2;}</style><clipPath id="clip-path"><path class="cls-1" d="M84.3,10H45.8a8.5,8.5,0,0,0-6,2.49L12.56,39.71a8.5,8.5,0,0,0-2.49,6V84.23a8.5,8.5,0,0,0,2.49,6l27.23,27.23a8.5,8.5,0,0,0,6,2.49H84.3a8.5,8.5,0,0,0,6-2.49l27.23-27.23a8.5,8.5,0,0,0,2.49-6V45.72a8.5,8.5,0,0,0-2.49-6L90.31,12.49A8.5,8.5,0,0,0,84.3,10Z"/></clipPath><linearGradient id="linear-gradient" x1="65.05" y1="111.06" x2="65.05" y2="25.52" gradientUnits="userSpaceOnUse"><stop offset="0" stop-color="#2e3192"/><stop offset="1" stop-color="#4dc1f9"/></linearGradient><clipPath id="clip-path-2"><path class="cls-1" d="M76.77,31.5H53.33A5.17,5.17,0,0,0,49.67,33L33.09,49.59a5.17,5.17,0,0,0-1.52,3.66V76.7a5.17,5.17,0,0,0,1.52,3.66L49.67,96.93a5.17,5.17,0,0,0,3.66,1.52H76.77a5.17,5.17,0,0,0,3.66-1.52L97,80.36a5.17,5.17,0,0,0,1.52-3.66V53.25A5.17,5.17,0,0,0,97,49.59L80.43,33A5.17,5.17,0,0,0,76.77,31.5Z"/></clipPath></defs><title>_</title><g class="cls-2"><g id="Layer_1" data-name="Layer 1"><path class="cls-3" d="M84.28,19.5H45.78a8.5,8.5,0,0,0-6,2.49L12.54,49.22a8.5,8.5,0,0,0-2.49,6V93.73a8.5,8.5,0,0,0,2.49,6L39.77,127a8.5,8.5,0,0,0,6,2.49H84.28a8.5,8.5,0,0,0,6-2.49l27.23-27.23a8.5,8.5,0,0,0,2.49-6V55.22a8.5,8.5,0,0,0-2.49-6L90.29,22A8.5,8.5,0,0,0,84.28,19.5Z"/><path class="cls-4" d="M84.3,14.44H45.8a8.5,8.5,0,0,0-6,2.49L12.56,44.15a8.5,8.5,0,0,0-2.49,6V88.67a8.5,8.5,0,0,0,2.49,6L39.79,121.9a8.5,8.5,0,0,0,6,2.49H84.3a8.5,8.5,0,0,0,6-2.49l27.23-27.23a8.5,8.5,0,0,0,2.49-6V50.16a8.5,8.5,0,0,0-2.49-6L90.31,16.93A8.5,8.5,0,0,0,84.3,14.44Z"/><path class="cls-5" d="M84.3,10H45.8a8.5,8.5,0,0,0-6,2.49L12.56,39.71a8.5,8.5,0,0,0-2.49,6V84.23a8.5,8.5,0,0,0,2.49,6l27.23,27.23a8.5,8.5,0,0,0,6,2.49H84.3a8.5,8.5,0,0,0,6-2.49l27.23-27.23a8.5,8.5,0,0,0,2.49-6V45.72a8.5,8.5,0,0,0-2.49-6L90.31,12.49A8.5,8.5,0,0,0,84.3,10Z"/><g class="cls-6"><rect class="cls-7" x="-13.22" y="49.53" width="145.65" height="22.86" transform="translate(-25.65 60.01) rotate(-45)"/><rect class="cls-7" x="1.82" y="71.65" width="145.65" height="8.57" transform="translate(-31.83 75.02) rotate(-45)"/></g><path class="cls-8" d="M80.55,20.72h-31a6.84,6.84,0,0,0-4.84,2L22.79,44.64a6.84,6.84,0,0,0-2,4.84v31a6.84,6.84,0,0,0,2,4.84l21.92,21.92a6.84,6.84,0,0,0,4.84,2h31a6.84,6.84,0,0,0,4.84-2L107.3,85.31a6.84,6.84,0,0,0,2-4.84v-31a6.84,6.84,0,0,0-2-4.84L85.38,22.72A6.84,6.84,0,0,0,80.55,20.72Z"/><path class="cls-9" d="M107.3,44.85,85.38,22.93a6.84,6.84,0,0,0-4.84-2h-31a6.84,6.84,0,0,0-4.84,2L22.79,44.85a6.84,6.84,0,0,0-2,4.84V54a6.84,6.84,0,0,1,2-4.84L44.71,27.28a6.84,6.84,0,0,1,4.84-2h31a6.84,6.84,0,0,1,4.84,2L107.3,49.2a6.84,6.84,0,0,1,2,4.84V49.68A6.84,6.84,0,0,0,107.3,44.85Z"/><path class="cls-7" d="M22.79,89.76l21.92,21.92a6.84,6.84,0,0,0,4.84,2h31a6.84,6.84,0,0,0,4.84-2L107.3,89.76a6.84,6.84,0,0,0,2-4.84V80.58a6.84,6.84,0,0,1-2,4.84L85.38,107.33a6.84,6.84,0,0,1-4.84,2h-31a6.84,6.84,0,0,1-4.84-2L22.79,85.41a6.84,6.84,0,0,1-2-4.84v4.35A6.84,6.84,0,0,0,22.79,89.76Z"/><path class="cls-9" d="M76.77,36.26H53.33a5.17,5.17,0,0,0-3.66,1.52L33.09,54.35A5.17,5.17,0,0,0,31.58,58V81.46a5.17,5.17,0,0,0,1.52,3.66l16.58,16.58a5.17,5.17,0,0,0,3.66,1.52H76.77a5.17,5.17,0,0,0,3.66-1.52L97,85.12a5.17,5.17,0,0,0,1.52-3.66V58A5.17,5.17,0,0,0,97,54.35L80.43,37.78A5.17,5.17,0,0,0,76.77,36.26Z"/><path class="cls-4" d="M76.77,34.4H53.33a5.17,5.17,0,0,0-3.66,1.52L33.09,52.49a5.17,5.17,0,0,0-1.52,3.66V79.59a5.17,5.17,0,0,0,1.52,3.66L49.67,99.83a5.17,5.17,0,0,0,3.66,1.52H76.77a5.17,5.17,0,0,0,3.66-1.52L97,83.25a5.17,5.17,0,0,0,1.52-3.66V56.15A5.17,5.17,0,0,0,97,52.49L80.43,35.91A5.17,5.17,0,0,0,76.77,34.4Z"/><path class="cls-5" d="M76.77,31.5H53.33A5.17,5.17,0,0,0,49.67,33L33.09,49.59a5.17,5.17,0,0,0-1.52,3.66V76.7a5.17,5.17,0,0,0,1.52,3.66L49.67,96.93a5.17,5.17,0,0,0,3.66,1.52H76.77a5.17,5.17,0,0,0,3.66-1.52L97,80.36a5.17,5.17,0,0,0,1.52-3.66V53.25A5.17,5.17,0,0,0,97,49.59L80.43,33A5.17,5.17,0,0,0,76.77,31.5Z"/><g class="cls-10"><rect class="cls-7" x="-13.22" y="49.53" width="145.65" height="22.86" transform="translate(-25.65 60.01) rotate(-45)"/><rect class="cls-7" x="1.82" y="71.65" width="145.65" height="8.57" transform="translate(-31.83 75.02) rotate(-45)"/></g><circle class="cls-11" cx="91.96" cy="36.2" r="1.78" transform="translate(2.5 78.21) rotate(-46.64)"/><circle class="cls-11" cx="35.95" cy="100" r="2.74" transform="translate(-61.44 57.49) rotate(-46.64)"/><path class="cls-11" d="M103.77,49c-3,.64-4.06,1.72-4.7,4.71a.55.55,0,0,1-1.09,0c-.64-3-1.72-4.06-4.71-4.7a.55.55,0,0,1,0-1.09c3-.64,4.06-1.72,4.7-4.71a.55.55,0,0,1,1.09,0c.64,3,1.72,4.06,4.71,4.7A.55.55,0,0,1,103.77,49Z"/><path class="cls-12" d="M45.81,63.6,70.36,39.27a1.48,1.48,0,0,1,2.63.94V56a1.48,1.48,0,0,0,1.48,1.48h9.87v6a1.51,1.51,0,0,1-.34,1L59.74,94a1.48,1.48,0,0,1-2.63-.94V72a1.48,1.48,0,0,0-1.48-1.48H47.32A1.51,1.51,0,0,1,45.81,69Z"/><path class="cls-13" d="M45.61,61.26,70.36,35.12a1.48,1.48,0,0,1,2.63.94V53a1.48,1.48,0,0,0,1.48,1.48h10v4.85a1.51,1.51,0,0,1-.34,1L59.74,89.87a1.48,1.48,0,0,1-2.63-.94V68.43a1.48,1.48,0,0,0-1.48-1.48H47.1a1.51,1.51,0,0,1-1.51-1.51Z"/><path class="cls-14" d="M84.13,55.4,59.74,85.13a1.48,1.48,0,0,1-2.63-.94V63.14a.33.33,0,0,0-.34-.34H47.24A1.65,1.65,0,0,1,46,60.11L70.36,30.38a1.48,1.48,0,0,1,2.63.94V52.39a.33.33,0,0,0,.34.33h9.53A1.65,1.65,0,0,1,84.13,55.4Z"/><path class="cls-15" d="M84.13,55.4,59.74,85.13a1.48,1.48,0,0,1-2.63-.94V63.14a.33.33,0,0,0-.34-.34H56l17-17v6.6a.33.33,0,0,0,.34.33h9.53A1.65,1.65,0,0,1,84.13,55.4Z"/></g></g></svg>