<svg xmlns="http://www.w3.org/2000/svg" viewBox="0 0 38.81 38.81"><defs><style>.cls-1{fill:#fff;}.cls-2{fill:#ffb300;}.cls-3{fill:#ff6900;}.cls-4{fill:#f64a36;}</style></defs><title>Play1</title><g id="Layer_2" data-name="Layer 2"><g id="Layer_4" data-name="Layer 4"><circle class="cls-1" cx="19.41" cy="19.41" r="15.74"/><path class="cls-2" d="M19.41,38.81A19.41,19.41,0,1,1,38.81,19.41,19.43,19.43,0,0,1,19.41,38.81Zm0-29.45a10,10,0,1,0,10,10A10.06,10.06,0,0,0,19.41,9.36Z"/><circle class="cls-3" cx="19.41" cy="19.41" r="15.74"/><path class="cls-4" d="M19.49,32.29A13.11,13.11,0,1,1,32.59,19.18,13.12,13.12,0,0,1,19.49,32.29Zm0-24.3A11.19,11.19,0,1,0,30.68,19.18,11.2,11.2,0,0,0,19.49,8Z"/><path class="cls-1" d="M24.46,19a.74.74,0,0,1-.38.67L16.6,24a.46.46,0,0,1-.49,0,.44.44,0,0,1-.24-.44v-9.2a.44.44,0,0,1,.24-.44.46.46,0,0,1,.49,0l7.47,4.36A.73.73,0,0,1,24.46,19Z"/></g></g></svg>