<svg xmlns="http://www.w3.org/2000/svg" viewBox="0 0 181.99 177.35"><defs><style>.cls-1{isolation:isolate;}.cls-2,.cls-5{fill:#fff;}.cls-2{stroke:#fff;stroke-linejoin:round;stroke-width:24px;}.cls-2,.cls-4{stroke-linecap:round;}.cls-3{fill:#ffb66f;}.cls-4{fill:none;stroke:#000;stroke-miterlimit:10;stroke-width:4px;opacity:0.4;}.cls-6{fill:#57473e;}.cls-7{opacity:0.08;mix-blend-mode:multiply;}.cls-8{fill:#515451;}.cls-9{fill:#626662;}.cls-10{fill:#5d5c58;}.cls-11{fill:#6b6a65;}.cls-12{fill:#ffce9e;}</style></defs><title>setup-judoka</title><g class="cls-1"><g id="Layer_2" data-name="Layer 2"><g id="Layer_1-2" data-name="Layer 1"><path class="cls-2" d="M165.7,116.79c.12-.35.25-.7.36-1.06.2-.61.39-1.23.57-1.84.09-.3.18-.59.27-.89q.39-1.38.74-2.78A79,79,0,0,0,150,38.53a79.5,79.5,0,0,0-17.72-14.85,78.31,78.31,0,0,0-34.86-11.4c-2.15-.18-4.32-.27-6.51-.27a78.89,78.89,0,0,0-61,28.74l-.37.44h0a1.83,1.83,0,0,0,.37.52l1.48,1.5c-1,.51-2.11,1.08-3.21,1.71h0a2.35,2.35,0,0,0-.49.37c-2.09,2.08-18.16,19-15.41,43.17,0,.06,0,.12,0,.19s0,.25.05.37a53.33,53.33,0,0,0,3.7,13.8,2.41,2.41,0,0,0,.26.46l.09.11a2.31,2.31,0,0,0,.24.26l.13.11.27.18.16.09.08,0h0a2.22,2.22,0,0,0,2.35-.34l.71-.61A70.5,70.5,0,0,0,158.2,114.19a48.58,48.58,0,0,1,3.82,6.17,2.21,2.21,0,0,0,1.87,1.23c.16-.38.31-.78.46-1.16v.06c.12-.31.23-.62.35-.93s.29-.75.43-1.12C165.33,117.89,165.52,117.34,165.7,116.79Z"/><circle class="cls-3" cx="90.39" cy="94.84" r="70.51"/><path class="cls-4" d="M108.84,115.05A24.81,24.81,0,0,1,72,114.16"/><path class="cls-5" d="M64.64,101.83c0,4.76-3.2,4.92-7.57,4.83-.89,0-1.83,0-2.81,0s-1.93,0-2.82,0c-4.37.09-7.56-.07-7.56-4.83a10.38,10.38,0,0,1,20.76,0Z"/><path class="cls-6" d="M59,102.83a4.72,4.72,0,0,1-1.94,3.83c-.89,0-1.83,0-2.81,0s-1.93,0-2.82,0A4.75,4.75,0,1,1,59,102.83Z"/><circle class="cls-5" cx="50.58" cy="99.83" r="1.78"/><path class="cls-5" d="M136.91,101.83c0,4.76-3.2,4.92-7.57,4.83-.89,0-1.83,0-2.81,0s-1.93,0-2.82,0c-4.37.09-7.56-.07-7.56-4.83a10.38,10.38,0,0,1,20.76,0Z"/><path class="cls-6" d="M131.28,102.83a4.72,4.72,0,0,1-1.94,3.83c-.89,0-1.83,0-2.81,0s-1.93,0-2.82,0a4.75,4.75,0,1,1,7.57-3.83Z"/><circle class="cls-5" cx="122.85" cy="99.83" r="1.78"/><path class="cls-7" d="M160.79,94.65c0,.25,0,.49,0,.74a69.43,69.43,0,0,1-7,29.87l0,.09c-12.4-22.53-39-27.54-63.4-36C70,82.26,47.44,58.55,36.59,46.08c-.09-.1-.16-.2-.25-.29.12-.16.26-.32.37-.48a3.07,3.07,0,0,1,.49-.48l.59-.45C77.66,14.65,120,23.11,143.89,48.9A70.07,70.07,0,0,1,160.79,94.65Z"/><path class="cls-8" d="M27.73,45.28C25.25,47.75,3,71.19,16.09,102.81a2.28,2.28,0,0,0,3.58.91c5.86-5,20.84-18.65,22.15-28.35s6.67-27,8.82-33.8a2.25,2.25,0,0,0-2.18-2.95c-3.88.07-11.15,1.06-20.25,6.27A2.36,2.36,0,0,0,27.73,45.28Z"/><path class="cls-9" d="M50.64,41.57c-.15.46-.31,1-.49,1.54a2.33,2.33,0,0,0-1.67-.39c-4.13.58-11.76,2.57-20.79,9.32a2.37,2.37,0,0,0-.48.47c-2,2.6-18.3,24.51-9.89,51.56a2.32,2.32,0,0,1-1.24-1.26C3,71.19,25.25,47.75,27.72,45.28a2.64,2.64,0,0,1,.5-.38c9.09-5.22,16.36-6.2,20.24-6.27A2.25,2.25,0,0,1,50.64,41.57Z"/><path class="cls-10" d="M150,38.53A79.06,79.06,0,0,0,29.57,41.18a1.83,1.83,0,0,0,.37.52c7.5,7.66,37.89,37.41,62.86,43.67,26.86,6.7,55.81,9.24,69.21,35a2.21,2.21,0,0,0,1.87,1.23,75.76,75.76,0,0,0,3.75-11.35A79.13,79.13,0,0,0,150,38.53Z"/><path class="cls-11" d="M170,91.07a78.49,78.49,0,0,1-2.35,19.16,75.59,75.59,0,0,1-3.3,10.25c.53-2.7,1-5.45,1.24-8.25A90.5,90.5,0,0,0,151.39,53a81.23,81.23,0,0,0-37.45-31A75.82,75.82,0,0,0,38.25,33.26a83.17,83.17,0,0,0-8.68,7.92A79.07,79.07,0,0,1,170,91.07Z"/><circle class="cls-12" cx="47.28" cy="115.08" r="2.41"/><circle class="cls-12" cx="133.51" cy="115.08" r="2.41"/></g></g></g></svg>